# Blender v2.79 (sub 0) OBJ File: ''
# www.blender.org
mtllib skyscrapper_1.mtl
o Cube
v 1.000000 0.000000 -1.000000
v 1.000000 0.000000 1.000000
v -1.000000 0.000000 1.000000
v -1.000000 0.000000 -1.000000
v 1.000000 2.000000 -0.999999
v 0.999999 2.000000 1.000001
v -1.000000 2.000000 1.000000
v -1.000000 2.000000 -1.000000
v 1.000000 9.119967 -0.999999
v -1.000000 9.119967 -1.000000
v -1.000000 9.119967 1.000000
v 0.999999 9.119967 1.000001
vt 0.441506 0.863181
vt 0.554290 0.750398
vt 0.554290 0.863181
vt 0.786011 0.861854
vt 0.945510 0.861854
vt 0.865761 0.941604
vt 0.865760 0.214287
vt 0.865760 0.054787
vt 0.945510 0.134537
vt 0.138444 0.054787
vt 0.138444 0.214287
vt 0.058694 0.134537
vt 0.138444 0.941604
vt 0.138444 0.782104
vt 0.218194 0.861854
vt 0.422352 0.498196
vt 0.581852 0.498196
vt 0.502102 0.577946
vt 0.502102 0.418446
vt 0.218194 0.134537
vt 0.786011 0.134537
vt 0.865761 0.782104
vt 0.441506 0.750398
vt 0.058694 0.861854
vn 0.0000 -1.0000 0.0000
vn 1.0000 -0.0000 0.0000
vn 0.0000 -0.0000 1.0000
vn -1.0000 -0.0000 -0.0000
vn 0.0000 0.0000 -1.0000
vn 0.0000 1.0000 -0.0000
usemtl Material
s off
f 2/1/1 4/2/1 1/3/1
f 5/4/2 2/5/2 1/6/2
f 6/7/3 3/8/3 2/9/3
f 3/10/4 8/11/4 4/12/4
f 1/13/5 8/14/5 5/15/5
f 10/16/6 12/17/6 9/18/6
f 10/16/5 5/15/5 8/14/5
f 11/19/4 8/11/4 7/20/4
f 12/17/3 7/21/3 6/7/3
f 9/18/2 6/22/2 5/4/2
f 2/1/1 3/23/1 4/2/1
f 5/4/2 6/22/2 2/5/2
f 6/7/3 7/21/3 3/8/3
f 3/10/4 7/20/4 8/11/4
f 1/13/5 4/24/5 8/14/5
f 10/16/6 11/19/6 12/17/6
f 10/16/5 9/18/5 5/15/5
f 11/19/4 10/16/4 8/11/4
f 12/17/3 11/19/3 7/21/3
f 9/18/2 12/17/2 6/22/2
